#!OML:ASF I:\Actors\actors\Patient Classification 1\Patient 1\Session 1\Subject1.ASF
:FULLY-SPECIFIED
:DEGREES
271
root 0.605823 17.5753 9.80733 10.7351 -10.0136 -7.7748
lowerback 6.47282 5.65464 13.7029
upperback -12.5733 9.83344 -0.0915765
thorax -15.7763 2.90474 -9.40792
lowerneck -14.1728 7.15932 4.52647
upperneck 23.2605 6.29393 10.9305
head 9.53256 4.60599 3.83201
rclavicle 4.11049e-014 1.41386e-014
rhumerus 93.3928 63.1598 -22.5096
rradius 110.606
rwrist -34.389
rhand 20.4226 -58.4261
rfingers 7.12502
rthumb 44.9286 -81.9537
lclavicle 4.11049e-014 1.41386e-014
lhumerus 8.15743 32.8645 38.6557
lradius 25.5916
lwrist 7.17024
lhand -45.9518 -23.1929
lfingers 7.12502
lthumb -18.6994 5.92827
rfemur -10.0488 24.2724 22.8257
rtibia 11.4083
rfoot -13.6006 -15.0056
rtoes -2.64111
lfemur 6.40286 -36.1318 -15.0748
ltibia -2.9804
lfoot -26.9412 50.5554
ltoes 14.7317
272
root 0.609442 17.5727 9.82944 10.7662 -10.3653 -7.41841
lowerback 6.40249 5.6488 13.3346
upperback -12.597 9.73952 -0.248772
thorax -15.795 2.89023 -9.37155
lowerneck -14.2677 7.12968 4.3514
upperneck 23.04 6.27173 11.0578
head 9.46023 4.58835 3.89299
rclavicle 6.5102e-015 -3.42904e-015
rhumerus 93.4588 62.9832 -22.575
rradius 111.411
rwrist -34.9846
rhand 20.3567 -58.0909
rfingers 7.12502
rthumb 44.8672 -81.6426
lclavicle 6.5102e-015 -3.42904e-015
lhumerus 7.22062 32.4482 37.2513
lradius 26.2277
lwrist 7.96434
lhand -44.7571 -22.8508
lfingers 7.12502
lthumb -17.5499 6.37708
rfemur -9.93558 24.2356 22.3922
rtibia 11.1305
rfoot -13.5274 -14.7166
rtoes -2.67731
lfemur 6.66412 -36.1677 -15.7955
ltibia -3.05944
lfoot -27.2625 50.826
ltoes 14.8551
273
root 0.614702 17.5762 9.84469 11.088 -10.7795 -7.61268
lowerback 6.256 5.66553 13.4333
upperback -12.6721 9.76003 -0.227046
thorax -15.7844 2.8882 -9.38558
lowerneck -14.365 7.14391 4.18992
upperneck 22.7947 6.33261 11.0882
head 9.37969 4.59862 3.92632
rclavicle 9.95166e-015 1.52567e-014
rhumerus 93.7817 62.8004 -22.4395
rradius 112.294
rwrist -35.6739
rhand 20.1716 -57.8102
rfingers 7.12502
rthumb 44.6949 -81.429
lclavicle 9.95166e-015 1.52567e-014
lhumerus 6.06896 32.191 35.8536
lradius 27.0263
lwrist 8.77024
lhand -44.1357 -22.256
lfingers 7.12502
lthumb -16.9518 7.02422
rfemur -10.1874 24.4144 22.4478
rtibia 11.036
rfoot -13.4393 -14.4376
rtoes -2.57991
lfemur 6.67119 -36.2778 -15.6756
ltibia -3.22353
lfoot -27.9317 51.2264
ltoes 15.3599
274
root 0.619606 17.5813 9.86503 11.538 -11.0447 -8.16053
lowerback 5.94445 5.64832 13.8909
upperback -12.7347 9.77052 -0.0664042
thorax -15.6402 2.86468 -9.40396
lowerneck -14.542 7.15707 3.90874
upperneck 22.5479 6.41825 11.1071
head 9.30638 4.61052 3.98091
rclavicle -4.77083e-015 -2.15681e-014
rhumerus 94.1489 62.7023 -22.2932
rradius 113.163
rwrist -36.2505
rhand 19.8967 -57.412
rfingers 7.12502
rthumb 44.4388 -81.1293
lclavicle -4.77083e-015 -2.15681e-014
lhumerus 4.73256 31.711 34.3557
lradius 27.9104
lwrist 9.77386
lhand -43.9557 -21.3913
lfingers 7.12502
lthumb -16.7786 7.90368
rfemur -10.4294 24.5638 22.9278
rtibia 10.9118
rfoot -13.3268 -14.2138
rtoes -2.62456
lfemur 6.60577 -36.3913 -15.0701
ltibia -3.43161
lfoot -28.6257 51.5527
ltoes 15.925
275
root 0.623944 17.585 9.87667 11.8507 -11.4057 -8.54989
lowerback 5.89968 5.64072 14.1647
upperback -12.7894 9.8078 0.0338707
thorax -15.6626 2.85134 -9.43694
lowerneck -14.6976 7.15806 3.69391
upperneck 22.3377 6.46793 11.1352
head 9.24706 4.61373 4.02546
rclavicle 3.54831e-014 3.24019e-014
rhumerus 94.2876 62.6175 -22.3791
rradius 114.175
rwrist -36.731
rhand 19.2943 -57.2738
rfingers 7.12502
rthumb 43.8772 -81.2023
lclavicle 3.54831e-014 3.24019e-014
lhumerus 3.26925 30.3832 32.6129
lradius 28.9494
lwrist 11.4729
lhand -43.8306 -19.9467
lfingers 7.12502
lthumb -16.6581 9.3585
rfemur -10.6383 24.7277 23.237
rtibia 10.8602
rfoot -13.2169 -13.9666
rtoes -2.87539
lfemur 6.55519 -36.2751 -14.6484
ltibia -3.54832
lfoot -29.2108 51.7341
ltoes 16.4613
276
root 0.629359 17.5879 9.881 12.0321 -11.8908 -8.66078
lowerback 6.0378 5.65156 14.1424
upperback -12.8297 9.84878 0.0320669
thorax -15.7968 2.85472 -9.45655
lowerneck -14.8108 7.16874 3.54364
upperneck 22.1363 6.50512 11.2207
head 9.18537 4.62292 4.07674
rclavicle 4.65902e-015 8.44835e-016
rhumerus 94.3373 62.4761 -22.5519
rradius 115.293
rwrist -37.093
rhand 18.5388 -57.2777
rfingers 7.12502
rthumb 43.1715 -81.4628
lclavicle 4.65902e-015 8.44835e-016
lhumerus 1.69323 28.2595 30.7053
lradius 30.2437
lwrist 13.845
lhand -42.9716 -18.2268
lfingers 7.12502
lthumb -15.831 11.146
rfemur -10.848 24.9545 23.2164
rtibia 10.8575
rfoot -13.1028 -13.7217
rtoes -3.24609
lfemur 6.5548 -36.1386 -14.607
ltibia -3.59264
lfoot -29.9421 51.8885
ltoes 17.2409
277
root 0.635289 17.5919 9.88504 12.2121 -12.3464 -8.71672
lowerback 6.14804 5.69207 14.0766
upperback -12.8774 9.91375 -0.0161095
thorax -15.9113 2.87325 -9.50516
lowerneck -14.8804 7.13822 3.34898
upperneck 21.8738 6.47685 11.4271
head 9.09159 4.60902 4.16345
rclavicle -2.55935e-014 -1.3418e-014
rhumerus 93.9743 62.3941 -23.0373
rradius 116.203
rwrist -37.3386
rhand 17.9998 -56.8883
rfingers 7.12502
rthumb 42.6674 -81.2507
lclavicle -2.55935e-014 -1.3418e-014
lhumerus 0.340695 26.4147 29.1417
lradius 31.6372
lwrist 16.0413
lhand -41.1624 -17.0766
lfingers 7.12502
lthumb -14.0881 12.4259
rfemur -11.0777 25.1277 23.1274
rtibia 10.8538
rfoot -12.9879 -13.4848
rtoes -3.67431
lfemur 6.57375 -36.2444 -14.6649
ltibia -3.63085
lfoot -30.9865 52.1146
ltoes 18.3726
278
root 0.63836 17.595 9.88916 12.3675 -12.7531 -8.788
lowerback 6.23368 5.74004 13.982
upperback -12.9104 9.97873 -0.0604647
thorax -15.9947 2.90021 -9.52921
lowerneck -14.96 7.09405 3.21843
upperneck 21.6456 6.41767 11.6037
head 9.0181 4.5839 4.22909
rclavicle -5.8393e-015 -3.01159e-014
rhumerus 93.2763 62.4154 -23.8179
rradius 116.921
rwrist -37.6777
rhand 17.5269 -56.458
rfingers 7.12502
rthumb 42.2246 -80.9723
lclavicle -5.8393e-015 -3.01159e-014
lhumerus -0.795917 25.1072 27.9336
lradius 33.0828
lwrist 17.9927
lhand -39.2462 -16.5552
lfingers 7.12502
lthumb -12.241 13.0665
rfemur -11.2629 25.2228 23.0804
rtibia 10.8296
rfoot -12.8645 -13.2217
rtoes -4.00958
lfemur 6.57135 -36.2777 -14.6746
ltibia -3.62997
lfoot -31.7682 52.2978
ltoes 19.0145
279
root 0.640677 17.5957 9.89461 12.5204 -13.0747 -8.86441
lowerback 6.23527 5.7546 13.8701
upperback -12.9245 9.98242 -0.0656704
thorax -16.0245 2.91143 -9.47764
lowerneck -15.0543 7.091 3.17133
upperneck 21.4889 6.41966 11.6443
head 8.97764 4.58157 4.24653
rclavicle -2.03009e-014 9.93923e-016
rhumerus 92.8284 62.4908 -24.3841
rradius 117.58
rwrist -38.0056
rhand 16.9133 -56.0304
rfingers 7.12502
rthumb 41.6495 -80.7367
lclavicle -2.03009e-014 9.93923e-016
lhumerus -1.96309 23.8053 26.7862
lradius 34.5969
lwrist 19.9402
lhand -37.934 -16.3695
lfingers 7.12502
lthumb -10.9756 13.3235
rfemur -11.421 25.2646 23.0572
rtibia 10.7818
rfoot -12.7208 -12.9886
rtoes -4.39748
lfemur 6.51628 -36.2517 -14.6367
ltibia -3.58708
lfoot -32.326 52.4162
ltoes 19.3132
280
root 0.64455 17.5955 9.89928 12.6507 -13.3213 -8.90685
lowerback 6.23019 5.78927 13.7685
upperback -12.9543 10.0125 -0.0987486
thorax -16.0567 2.9308 -9.46683
lowerneck -15.0451 7.03279 3.1051
upperneck 21.2888 6.35484 11.7132
head 8.90491 4.54633 4.26152
rclavicle 6.40832e-014 3.3694e-014
rhumerus 92.2501 62.6056 -24.9356
rradius 118.145
rwrist -38.1427
rhand 16.4448 -55.4117
rfingers 7.12502
rthumb 41.2099 -80.261
lclavicle 6.40832e-014 3.3694e-014
lhumerus -2.95961 22.5117 25.9273
lradius 36.1725
lwrist 21.4915
lhand -37.0466 -16.3034
lfingers 7.12502
lthumb -10.1196 13.4333
rfemur -11.5765 25.2339 23.0057
rtibia 10.7568
rfoot -12.6056 -12.785
rtoes -4.76211
lfemur 6.44261 -36.2302 -14.6181
ltibia -3.54156
lfoot -32.7813 52.4912
ltoes 19.6938
281
root 0.647087 17.595 9.90164 12.728 -13.5095 -8.94077
lowerback 6.20343 5.8395 13.6603
upperback -12.9477 10.0531 -0.142502
thorax -16.0226 2.96433 -9.45872
lowerneck -14.9813 6.94506 3.03714
upperneck 21.0669 6.24317 11.8378
head 8.81575 4.49323 4.28686
rclavicle -3.4191e-014 -6.81831e-014
rhumerus 91.6198 62.7301 -25.42
rradius 118.493
rwrist -37.9341
rhand 16.4703 -54.842
rfingers 7.12502
rthumb 41.2338 -79.6836
lclavicle -3.4191e-014 -6.81831e-014
lhumerus -3.8381 21.2897 25.3388
lradius 38.0529
lwrist 22.9201
lhand -36.5149 -15.5967
lfingers 7.12502
lthumb -9.60663 14.1643
rfemur -11.6822 25.1708 22.9801
rtibia 10.7638
rfoot -12.5393 -12.5902
rtoes -4.81845
lfemur 6.36128 -36.0564 -14.5636
ltibia -3.50271
lfoot -32.9167 52.4754
ltoes 19.7967
282
root 0.64696 17.5942 9.90404 12.7334 -13.6148 -8.99198
lowerback 6.13306 5.85019 13.543
upperback -12.8686 10.0253 -0.159523
thorax -15.8897 2.9831 -9.39367
lowerneck -14.9582 6.90059 3.0926
upperneck 20.9146 6.1791 11.8417
head 8.76564 4.46177 4.26296
rclavicle 2.77305e-014 6.79844e-014
rhumerus 91.3387 62.7849 -25.6195
rradius 118.543
rwrist -37.3329
rhand 17.0206 -54.3883
rfingers 7.12502
rthumb 41.7501 -79.0615
lclavicle 2.77305e-014 6.79844e-014
lhumerus -4.85021 20.5921 24.9377
lradius 40.5133
lwrist 24.6772
lhand -35.8944 -14.2989
lfingers 7.12502
lthumb -9.00795 15.4887
rfemur -11.6492 25.0836 23.0443
rtibia 10.7403
rfoot -12.4738 -12.4241
rtoes -4.81132
lfemur 6.35253 -35.8388 -14.5023
ltibia -3.47228
lfoot -32.7762 52.4171
ltoes 19.5607
283
root 0.645582 17.592 9.90746 12.6738 -13.6441 -9.09608
lowerback 6.0825 5.84699 13.4647
upperback -12.7617 9.98895 -0.145445
thorax -15.7382 2.99836 -9.31351
lowerneck -14.8863 6.86815 3.26918
upperneck 20.8148 6.13067 11.712
head 8.73363 4.43331 4.17675
rclavicle 5.26779e-015 -1.39149e-014
rhumerus 90.8948 62.8597 -25.9588
rradius 118.281
rwrist -36.6032
rhand 18.2686 -53.7089
rfingers 7.12502
rthumb 42.9188 -77.9835
lclavicle 5.26779e-015 -1.39149e-014
lhumerus -6.21387 20.1869 24.6847
lradius 43.8732
lwrist 27.6717
lhand -34.5531 -13.3075
lfingers 7.12502
lthumb -7.71342 16.5319
rfemur -11.4791 24.9832 23.2248
rtibia 10.6618
rfoot -12.3936 -12.3066
rtoes -4.90547
lfemur 6.44955 -35.6962 -14.4432
ltibia -3.43476
lfoot -32.634 52.3615
ltoes 19.3261
